<svg width="24" height="24" viewBox="0 0 24 24" fill="none" xmlns="http://www.w3.org/2000/svg">
<path fill-rule="evenodd" clip-rule="evenodd" d="M23.591 15.1057C24.0513 13.388 24.1145 11.6574 23.837 10.0114C23.4654 11.2034 22.8022 12.2331 21.947 13.0413L21.9461 13.0499C21.3061 13.6802 20.5516 14.1842 19.7221 14.5341C18.7901 14.9273 17.7849 15.1169 16.7738 15.0903C15.7627 15.0638 14.7688 14.8216 13.8588 14.3801C12.9488 13.9386 12.1435 13.3078 11.4968 12.5301C10.8501 11.7523 10.377 10.8454 10.109 9.87007C9.84094 8.89473 9.78426 7.87341 9.94269 6.87441C10.1011 5.8754 10.471 4.92174 11.0277 4.07718C11.5469 3.28944 12.2173 2.61355 12.9995 2.08838C13.9968 1.39143 15.1693 0.952136 16.4056 0.836742C15.9856 0.671596 15.552 0.528381 15.1058 0.408807C8.70416 -1.30649 2.12412 2.4925 0.40882 8.89409C-1.30648 15.2957 2.49251 21.8757 8.8941 23.591C15.2957 25.3063 21.8757 21.5073 23.591 15.1057ZM21.0461 16.2663C19.0255 20.5635 14.1597 22.9314 9.41174 21.6592C4.07708 20.2298 0.911253 14.7464 2.34067 9.41173C3.32782 5.72765 6.24837 3.07793 9.71815 2.26172C9.55383 2.46956 9.39824 2.68476 9.2519 2.90679C8.52865 4.00414 8.04803 5.24325 7.84217 6.54128C7.63631 7.83931 7.70996 9.16632 8.0582 10.4336C8.40643 11.7009 9.02122 12.8792 9.86146 13.8898C10.7017 14.9003 11.748 15.7199 12.9304 16.2935C14.1129 16.8672 15.4041 17.1819 16.7179 17.2164C18.0317 17.2509 19.3378 17.0045 20.5487 16.4937C20.7169 16.4227 20.8828 16.3469 21.0461 16.2663ZM21.8603 4.6141L21.3359 3L20.8114 4.6141L19.1143 4.6141L20.4873 5.61167L19.9629 7.22578L21.3359 6.22821L22.7089 7.22578L22.1845 5.61167L23.5575 4.6141L21.8603 4.6141ZM15.3359 3L15.8603 4.6141L17.5575 4.6141L16.1845 5.61167L16.7089 7.22578L15.3359 6.22821L13.9629 7.22578L14.4873 5.61167L13.1143 4.6141L14.8114 4.6141L15.3359 3ZM18.8603 8.6141L18.3359 7L17.8114 8.6141L16.1143 8.6141L17.4873 9.61167L16.9629 11.2258L18.3359 10.2282L19.7089 11.2258L19.1845 9.61167L20.5575 8.6141L18.8603 8.6141Z" fill="url(#paint0_linear_9_1784)"/>
<defs>
<linearGradient id="paint0_linear_9_1784" x1="15.1058" y1="0.408807" x2="8.8941" y2="23.591" gradientUnits="userSpaceOnUse">
<stop stop-color="#F5BD52"/>
<stop offset="1" stop-color="#F5DA79"/>
</linearGradient>
</defs>
</svg>
